<svg xmlns="http://www.w3.org/2000/svg" id="Layer_1" width="48" height="48" viewBox="0 0 48 48"><path id="path5" fill="#010101" d="M 24 0 C 10.751088 0 0 10.751088 0 24 C 0 37.248912 10.751088 48 24 48 C 37.248912 48 48 37.248912 48 24 C 48 10.751088 37.248912 0 24 0 z M 24 1 C 36.708472 1 47 11.291528 47 24 C 47 36.708472 36.708472 47 24 47 C 11.291528 47 1 36.708472 1 24 C 1 11.291528 11.291528 1 24 1 z M 13.5 13 C 13.224 13 13 13.224 13 13.5 L 13 31.150391 C 13 31.426392 13.224 31.650391 13.5 31.650391 L 17.722656 31.650391 L 18.453125 35.728516 C 18.497125 35.970516 18.708312 36.140625 18.945312 36.140625 C 18.974312 36.140625 19.004203 36.138813 19.033203 36.132812 L 31.847656 33.832031 C 31.880656 33.826031 31.9075 33.808875 31.9375 33.796875 C 31.9605 33.787875 31.983859 33.782531 32.005859 33.769531 C 32.070859 33.732531 32.127922 33.685001 32.169922 33.625 L 35.908203 28.248047 C 35.958203 28.177047 35.981281 28.090953 35.988281 28.001953 C 35.990281 27.978953 35.992234 27.9605 35.990234 27.9375 C 35.989234 27.9155 35.994234 27.895047 35.990234 27.873047 L 33.691406 15.060547 C 33.642406 14.788547 33.378328 14.608249 33.111328 14.65625 L 31.650391 14.917969 L 31.650391 13.5 C 31.650391 13.224 31.426391 13 31.150391 13 L 13.5 13 z M 14 14 L 30.650391 14 L 30.650391 15.097656 L 15.738281 17.775391 C 15.466281 17.823391 15.286938 18.083469 15.335938 18.355469 L 17.542969 30.650391 L 14 30.650391 L 14 14 z M 32.796875 15.730469 L 34.919922 27.558594 L 30.851562 28.287109 C 30.720562 28.310109 30.604297 28.385139 30.529297 28.494141 C 30.453297 28.603141 30.424265 28.739141 30.447266 28.869141 L 31.177734 32.9375 L 19.349609 35.060547 L 16.40625 18.671875 L 32.796875 15.730469 z M 34.400391 28.666016 L 32.037109 32.064453 L 31.519531 29.183594 L 34.400391 28.666016 z "/></svg>